<svg xmlns="http://www.w3.org/2000/svg" width="512" height="512" viewBox="0 0 512 512">
  <defs>
    <linearGradient id="bg" x1="0" y1="0" x2="1" y2="1">
      <stop offset="0" stop-color="#1a1a1f"/>
      <stop offset="1" stop-color="#0a0a0c"/>
    </linearGradient>
    <linearGradient id="bell" x1="0" y1="0" x2="0" y2="1">
      <stop offset="0" stop-color="#ff855e"/>
      <stop offset="1" stop-color="#ff5a2a"/>
    </linearGradient>
    <radialGradient id="glow" cx="0.5" cy="0.42" r="0.6">
      <stop offset="0" stop-color="#ff6a3d" stop-opacity="0.35"/>
      <stop offset="1" stop-color="#ff6a3d" stop-opacity="0"/>
    </radialGradient>
  </defs>
  <rect width="512" height="512" rx="112" fill="url(#bg)"/>
  <rect width="512" height="512" rx="112" fill="url(#glow)"/>
  <!-- kettlebell -->
  <g transform="translate(256 268)">
    <!-- handle -->
    <path d="M-54 -78 a54 54 0 0 1 108 0 a40 40 0 0 1 -34 39 l-7 -22 a22 22 0 0 0 11 -17 a32 32 0 0 0 -64 0 a22 22 0 0 0 11 17 l-7 22 a40 40 0 0 1 -34 -39 z" fill="url(#bell)"/>
    <!-- body -->
    <path d="M0 -34 c-58 0 -104 44 -104 108 c0 62 46 104 104 104 c58 0 104 -42 104 -104 c0 -64 -46 -108 -104 -108 z" fill="url(#bell)"/>
    <!-- inner highlight -->
    <circle cx="0" cy="78" r="42" fill="#0a0a0c" opacity="0.18"/>
  </g>
</svg>
